<svg width="150" height="31" viewBox="0 0 150 31" fill="none" xmlns="http://www.w3.org/2000/svg">
<path d="M29.6386 15.274V15.214C29.6386 15.118 29.6386 15.026 29.6288 14.93V14.826C29.6288 14.744 29.6288 14.662 29.615 14.582C29.615 14.45 29.5974 14.32 29.5836 14.182C29.5836 14.094 29.5679 14.008 29.5581 13.92C29.5581 13.878 29.5483 13.836 29.5443 13.792L29.5149 13.556C29.5149 13.532 29.5149 13.508 29.505 13.484C29.4933 13.394 29.4795 13.304 29.4658 13.214V13.178C29.4481 13.074 29.4324 12.978 29.4127 12.87V12.836C29.399 12.754 29.3833 12.672 29.3676 12.59C29.3664 12.5774 29.3664 12.5646 29.3676 12.552C29.3676 12.528 29.3675 12.502 29.3518 12.476C29.3322 12.384 29.3106 12.29 29.291 12.196C29.2902 12.1927 29.2902 12.1893 29.291 12.186C29.2674 12.082 29.2418 11.986 29.2183 11.878V11.866C29.2006 11.79 29.179 11.716 29.1594 11.64C29.1594 11.606 29.1417 11.57 29.1319 11.534L29.0337 11.3C29.0337 11.276 29.0199 11.254 29.012 11.228C28.9826 11.134 28.9551 11.04 28.9256 10.946C28.9248 10.9387 28.9248 10.9313 28.9256 10.924C28.8922 10.82 28.8569 10.724 28.8215 10.61V10.594C28.7881 10.496 28.7528 10.394 28.7155 10.298C28.6781 10.202 28.6389 10.098 28.5976 9.99C28.5564 9.882 28.5289 9.82 28.4955 9.736C28.4837 9.706 28.4719 9.676 28.4582 9.648C28.4228 9.564 28.3875 9.48 28.3501 9.398V9.384C28.2598 9.184 28.1675 8.984 28.0693 8.784C28.0202 8.686 27.9711 8.584 27.92 8.494L27.7904 8.25C27.7295 8.14 27.6686 8.03 27.5939 7.924C27.5193 7.818 27.4977 7.76 27.4486 7.678C27.4386 7.65864 27.4275 7.63994 27.4152 7.622L27.2561 7.368L27.2227 7.314L27.0676 7.1L26.9144 6.874L26.8378 6.768C26.7474 6.638 26.6531 6.51 26.5569 6.384L26.4862 6.294C26.3029 6.05667 26.113 5.82467 25.9166 5.598L25.838 5.51C25.507 5.13495 25.1576 4.77716 24.7911 4.438L24.6576 4.318C24.4789 4.154 24.2942 3.996 24.1057 3.842L23.9741 3.736C23.8346 3.624 23.6932 3.514 23.5479 3.406C23.5066 3.374 23.4614 3.344 23.4182 3.312C23.269 3.202 23.1158 3.096 22.9626 2.994C22.886 2.942 22.8094 2.89 22.7308 2.842C22.6522 2.794 22.5756 2.742 22.499 2.694L22.4028 2.636C22.0466 2.42 21.6813 2.22 21.3068 2.036L21.1104 1.938H21.0907L20.965 1.88L20.7686 1.788L20.6645 1.742C20.5251 1.68 20.3856 1.622 20.2442 1.566L20.1165 1.516H20.0989C20.0183 1.486 19.9378 1.454 19.8553 1.426H19.8396C19.7551 1.394 19.6726 1.364 19.5862 1.336L19.4664 1.296C19.3348 1.25 19.2032 1.208 19.0736 1.17L18.8988 1.116L18.6002 1.034L18.3685 0.974C18.1013 0.908 17.8323 0.85 17.5593 0.798L17.3471 0.758H17.3118L17.0682 0.674L16.8875 0.648C16.7815 0.63 16.6754 0.618 16.5674 0.604L16.371 0.582L16.1078 0.556L15.9801 0.546H15.9546C15.8236 0.536667 15.6979 0.528667 15.5775 0.522H15.4026C15.328 0.522 15.2573 0.522 15.1827 0.522H15.0786L14.8134 0.5H14.4442C14.3715 0.5 14.2988 0.5 14.2261 0.5H14.0494C13.9184 0.5 13.7927 0.508 13.6723 0.524H13.6487L13.5191 0.534L13.2559 0.582L13.0594 0.604C12.9534 0.618 12.8454 0.63 12.7472 0.648L12.5723 0.674L12.3131 0.714L12.101 0.754C11.8299 0.806 11.5589 0.864 11.2937 0.93L11.06 0.99L10.7614 1.072L10.5866 1.126C10.4531 1.164 10.3215 1.206 10.1938 1.252L10.074 1.292L9.80097 1.384H9.78526L9.54171 1.474H9.52403L9.40814 1.538C9.26869 1.594 9.12728 1.652 8.98979 1.714L8.88373 1.76L8.68731 1.852L8.55964 1.91H8.54197L8.34556 2.008C7.97041 2.194 7.60704 2.396 7.24957 2.608L7.1553 2.666C7.07673 2.714 7.00013 2.762 6.92157 2.814C6.843 2.866 6.7664 2.914 6.6898 2.966C6.5366 3.068 6.3834 3.166 6.23412 3.284L6.10449 3.378C5.95915 3.486 5.81773 3.596 5.67828 3.708L5.54668 3.814C5.35027 3.968 5.1735 4.126 4.99476 4.29L4.86317 4.41C4.48824 4.75441 4.13095 5.11823 3.79272 5.5L3.71612 5.588C3.5184 5.81467 3.32788 6.04667 3.14456 6.284L3.07385 6.374C2.97957 6.5 2.87744 6.628 2.79298 6.758C2.76745 6.792 2.74191 6.828 2.71834 6.864L2.55925 7.1C2.51015 7.172 2.46301 7.246 2.41587 7.318L2.38052 7.372L2.22142 7.626C2.20915 7.64394 2.198 7.66264 2.18803 7.682C2.13893 7.764 2.08983 7.844 2.04269 7.928C1.99555 8.012 1.91698 8.144 1.85806 8.254C1.79914 8.364 1.76967 8.416 1.72646 8.498C1.68325 8.58 1.62629 8.698 1.57719 8.788C1.47898 8.988 1.38078 9.188 1.29828 9.388V9.402C1.26097 9.484 1.22561 9.568 1.19222 9.652C1.17847 9.68 1.16669 9.71 1.1549 9.74C1.11955 9.824 1.0842 9.908 1.05081 9.994C1.01742 10.08 0.970276 10.194 0.932958 10.302L0.826895 10.598V10.614C0.791541 10.718 0.758151 10.814 0.722797 10.928V10.95C0.691371 11.044 0.663873 11.138 0.634411 11.232C0.634411 11.258 0.620663 11.28 0.61477 11.304C0.589237 11.388 0.565667 11.472 0.542098 11.556C0.542098 11.592 0.522457 11.628 0.5146 11.662L0.455676 11.888V11.9C0.430143 12.002 0.404609 12.1 0.38104 12.208C0.381793 12.2113 0.381793 12.2147 0.38104 12.218C0.361398 12.312 0.339793 12.406 0.322116 12.498C0.322116 12.524 0.310331 12.55 0.306403 12.574C0.305673 12.5867 0.305673 12.5993 0.306403 12.612C0.288071 12.6933 0.272358 12.7753 0.259264 12.858V12.892C0.239623 12.994 0.22391 13.092 0.206233 13.2C0.205267 13.212 0.205267 13.224 0.206233 13.236C0.19052 13.326 0.178735 13.416 0.16695 13.506C0.16695 13.53 0.16695 13.554 0.155166 13.578L0.0844572 13.8C0.0844572 13.844 0.0746366 13.886 0.0707084 13.928C0.0608878 14.016 0.0530313 14.102 0.0451748 14.19C0.0333901 14.32 0.0235695 14.45 0.0137489 14.59C0.0137489 14.67 0.00392824 14.752 0 14.834C0 14.87 0 14.904 0 14.938C0 15.034 0 15.126 0 15.222C0 15.242 0 15.262 0 15.282C0 15.392 0 15.502 0 15.612C0 15.722 0 15.872 0 16.012V16.212C0 16.2933 0.00392824 16.3753 0.0117847 16.458C0.0117847 16.522 0.0117847 16.584 0.0216053 16.658C0.031426 16.732 0.0216053 16.752 0.0216053 16.8C0.0216053 16.848 0.0216053 16.884 0.031426 16.926L0.0432107 17.062C0.0432107 17.128 0.0549954 17.194 0.0628519 17.262C0.0707084 17.33 0.0628519 17.344 0.0766008 17.386C0.0903496 17.428 0.0903496 17.504 0.0982061 17.562C0.106063 17.62 0.113919 17.688 0.12374 17.75C0.137489 17.854 0.151237 17.95 0.168914 18.06C0.178735 18.126 0.188556 18.188 0.20034 18.26C0.212125 18.332 0.221946 18.39 0.233731 18.46L0.251408 18.552L0.310331 18.848C0.351578 19.048 0.396753 19.234 0.445856 19.426C0.494959 19.618 0.540134 19.786 0.593165 19.964C0.785735 20.6244 1.02264 21.2706 1.30221 21.898C1.32382 21.942 1.34346 21.988 1.3631 22.032C1.43774 22.192 1.51237 22.35 1.59094 22.506C1.6479 22.62 1.70682 22.734 1.76771 22.846C1.91698 23.126 2.07411 23.404 2.24303 23.674L2.3432 23.834C2.99164 24.835 3.75447 25.7541 4.61569 26.572L4.75318 26.702H4.763L4.84156 26.776C4.9162 26.846 4.9928 26.916 5.0694 26.976C6.1482 27.9087 7.46655 28.5077 8.86883 28.7022C10.2711 28.8966 11.6988 28.6785 12.9832 28.0735C14.2677 27.4686 15.3554 26.502 16.1178 25.288C16.8803 24.0739 17.2857 22.6631 17.2862 21.222V16.688H14.8114C14.4871 16.6877 14.1658 16.7526 13.866 16.8788C13.5663 17.005 13.2939 17.1902 13.0644 17.4236C12.8349 17.6571 12.6529 17.9343 12.5287 18.2395C12.4045 18.5446 12.3406 18.8717 12.3406 19.202V21.174C12.3467 21.8394 12.0977 22.4809 11.6466 22.9623C11.1954 23.4438 10.5777 23.727 9.92471 23.752C9.34187 23.7671 8.77288 23.5699 8.32002 23.196H8.3102C8.2611 23.156 8.21199 23.112 8.16486 23.066L8.12164 23.024C7.11387 22.0837 6.30919 20.9403 5.75871 19.6664C5.20823 18.3924 4.92399 17.0158 4.92405 15.624C4.92458 13.8099 5.40636 12.0296 6.31847 10.4713C7.23059 8.91303 8.53917 7.63456 10.1059 6.77103C11.6727 5.90749 13.4395 5.49096 15.2195 5.56546C16.9996 5.63995 18.7268 6.2027 20.2187 7.19424C21.7106 8.18578 22.9117 9.56929 23.6952 11.1986C24.4786 12.8278 24.8153 14.6423 24.6696 16.4504C24.524 18.2584 23.9014 19.9928 22.8676 21.4702C21.8338 22.9477 20.4273 24.1133 18.7966 24.844C18.3485 25.0362 17.9661 25.359 17.6973 25.7717C17.4286 26.1845 17.2856 26.6688 17.2862 27.164V30.5C18.4573 30.2999 19.6002 29.956 20.6901 29.476L20.7529 29.448C20.8354 29.412 20.9159 29.376 20.9965 29.336C21.077 29.296 21.1595 29.26 21.24 29.222L21.4954 29.092C21.57 29.056 21.6427 29.016 21.7153 28.976C21.788 28.936 21.8332 28.914 21.8901 28.88L22.0296 28.804L22.0551 28.79L22.3144 28.636C22.4872 28.534 22.6562 28.436 22.8231 28.32L22.9586 28.23C23.2081 28.064 23.4497 27.888 23.6873 27.708L23.8307 27.598C23.9721 27.488 24.1116 27.374 24.2491 27.258C24.3414 27.182 24.4317 27.104 24.5201 27.026L24.6537 26.906L24.9188 26.662L25.1761 26.412L25.4275 26.156C25.5506 26.0227 25.6724 25.8893 25.7929 25.756L25.9127 25.62L26.0305 25.484L26.2583 25.208C26.3723 25.068 26.4823 24.928 26.5883 24.786C26.663 24.688 26.7337 24.586 26.8063 24.49L26.9104 24.344C26.9792 24.244 27.0479 24.144 27.1068 24.044L27.207 23.894C27.2718 23.792 27.3366 23.694 27.4034 23.588L27.4977 23.432C27.5586 23.328 27.6195 23.232 27.6784 23.118L27.7668 22.962C27.8257 22.856 27.8827 22.748 27.9396 22.638C27.9632 22.594 27.9848 22.548 28.0084 22.502C28.0319 22.456 28.0732 22.376 28.1027 22.302C28.1321 22.228 28.1773 22.152 28.2107 22.076C28.2441 22 28.2873 21.912 28.3246 21.83L28.4071 21.63C28.4307 21.574 28.4562 21.518 28.4798 21.46L28.5485 21.292L28.6448 21.046C28.6742 20.97 28.7017 20.892 28.7312 20.814C28.7606 20.736 28.796 20.632 28.8274 20.54L28.9099 20.292C28.9374 20.204 28.9649 20.118 28.9904 20.028C29.016 19.938 29.0435 19.852 29.069 19.764C29.0945 19.676 29.1083 19.624 29.126 19.552L29.1554 19.442C29.1711 19.386 29.1849 19.33 29.1986 19.272C29.2281 19.156 29.2556 19.04 29.2811 18.922L29.3224 18.722C29.344 18.618 29.3656 18.522 29.3852 18.406C29.4049 18.29 29.4186 18.222 29.4324 18.13C29.4461 18.038 29.4579 17.984 29.4697 17.912C29.4697 17.9 29.4697 17.888 29.4697 17.876C29.4795 17.818 29.4874 17.76 29.4952 17.7C29.4962 17.694 29.4962 17.688 29.4952 17.682C29.505 17.622 29.5129 17.56 29.5188 17.5C29.5247 17.44 29.5365 17.354 29.5443 17.28C29.5522 17.206 29.564 17.1 29.5718 17.01C29.5797 16.92 29.5895 16.828 29.5954 16.738C29.5964 16.7274 29.5964 16.7166 29.5954 16.706C29.5954 16.63 29.6072 16.554 29.6111 16.48V16.358C29.6111 16.29 29.6111 16.222 29.6209 16.158C29.6307 16.094 29.6209 15.958 29.6209 15.87C29.6209 15.782 29.6209 15.67 29.6209 15.58C29.6209 15.49 29.6386 15.384 29.6386 15.274Z" fill="#FF2E2E"/>
<path d="M14.4422 8.73C14.8157 8.72974 15.1857 8.80446 15.5309 8.94991C15.876 9.09535 16.1897 9.30866 16.4538 9.57763C16.718 9.8466 16.9274 10.166 17.0703 10.5174C17.2131 10.8689 17.2865 11.2456 17.2862 11.626V14.52H14.4422C13.6884 14.52 12.9655 14.2151 12.4325 13.6724C11.8995 13.1296 11.6001 12.3935 11.6001 11.626C11.5998 11.2458 11.6732 10.8692 11.8159 10.5179C11.9586 10.1666 12.1679 9.84729 12.4318 9.57834C12.6958 9.3094 13.0092 9.09605 13.3541 8.95048C13.6991 8.80492 14.0688 8.73 14.4422 8.73Z" fill="#FF2E2E"/>
<path d="M41.8358 15.756L40.2645 15.538C39.6949 15.448 39.3099 15.298 39.1037 15.09C38.9972 14.9714 38.9152 14.8322 38.8626 14.6807C38.81 14.5291 38.7878 14.3684 38.7973 14.208C38.7934 14.0389 38.8301 13.8713 38.9044 13.72C38.9787 13.5687 39.0883 13.4383 39.2235 13.34C39.5083 13.124 39.9895 13.014 40.6652 13.014C41.2599 13.0179 41.8465 13.1545 42.3838 13.414C42.9447 13.677 43.4549 14.04 43.8903 14.486L46.1569 12.124C45.8149 11.7917 45.4549 11.4792 45.0786 11.188C44.7078 10.9028 44.3041 10.665 43.8765 10.48C43.3971 10.2772 42.8961 10.1315 42.3838 10.046C41.7415 9.94141 41.0917 9.89256 40.4413 9.9C39.6768 9.88986 38.9156 10.004 38.1865 10.238C37.5635 10.4412 36.9848 10.7644 36.4816 11.19C36.0148 11.5896 35.6417 12.0905 35.3896 12.656C35.1251 13.248 34.9911 13.8917 34.9967 14.542C34.9967 17.0753 36.568 18.542 39.7106 18.942L41.2309 19.142C42.1736 19.2673 42.6444 19.6673 42.6431 20.342C42.6516 20.5333 42.615 20.7239 42.5364 20.8979C42.4578 21.0718 42.3395 21.2241 42.1913 21.342C41.8888 21.588 41.3467 21.708 40.565 21.708C39.8518 21.7203 39.1466 21.5527 38.5125 21.22C37.8883 20.8789 37.3284 20.4279 36.8587 19.888L34.5391 22.288C35.2356 23.0773 36.0787 23.7183 37.0198 24.174C37.9429 24.618 39.0801 24.8393 40.4314 24.838C41.2659 24.8493 42.0972 24.7306 42.8964 24.486C43.5833 24.2759 44.2255 23.9367 44.7898 23.486C45.2988 23.0807 45.7133 22.5657 46.0037 21.978C46.2909 21.387 46.4369 20.7353 46.4299 20.076C46.4417 17.6133 44.9103 16.1733 41.8358 15.756Z" fill="#FF2E2E"/>
<path d="M60.5264 18.362V17.162C60.53 16.2316 60.4091 15.3051 60.1669 14.408C59.9422 13.5678 59.5527 12.7827 59.0219 12.1C58.4757 11.4154 57.7822 10.8679 56.9949 10.5C56.0595 10.0784 55.0438 9.87346 54.0212 9.9C53.0629 9.88253 52.1109 10.0621 51.2223 10.428C50.4299 10.7631 49.7231 11.2782 49.1561 11.934C48.5787 12.6197 48.1474 13.4199 47.8892 14.284C47.5942 15.2738 47.4498 16.3037 47.461 17.338C47.4499 18.384 47.5997 19.4252 47.9049 20.424C48.1678 21.2945 48.6135 22.0964 49.2111 22.774C49.801 23.4246 50.5247 23.9347 51.3304 24.268C52.2398 24.6353 53.2119 24.8148 54.1901 24.796C55.3617 24.8164 56.5259 24.6037 57.6175 24.17C58.5563 23.7982 59.3931 23.2013 60.057 22.43L58.0732 19.922C57.6426 20.3789 57.16 20.7818 56.6355 21.122C56.0285 21.4789 55.3343 21.6523 54.634 21.622C53.5695 21.622 52.7858 21.346 52.2889 20.798C51.7919 20.25 51.5425 19.512 51.5425 18.578V18.362H60.5264ZM51.5425 15.782C51.5425 14.8967 51.769 14.1867 52.2221 13.652C52.6751 13.1173 53.3023 12.8507 54.1037 12.852C54.9025 12.852 55.4917 13.1187 55.8714 13.652C56.2511 14.1853 56.4423 14.8867 56.4449 15.756V16H51.5346L51.5425 15.782Z" fill="#FF2E2E"/>
<path d="M87.1402 11.744V20.804C87.1401 21.9318 86.7412 23.022 86.0167 23.875C85.2922 24.7281 84.2903 25.2872 83.1943 25.45C82.9733 25.4838 82.75 25.5006 82.5265 25.5C82.3036 25.5006 82.081 25.4839 81.8607 25.45C80.7645 25.2876 79.7624 24.7286 79.0378 23.8755C78.3132 23.0223 77.9145 21.932 77.9148 20.804V15.866C77.9148 14.0567 77.2745 13.1513 75.9939 13.15C75.4206 13.1463 74.8606 13.3261 74.3931 13.664C73.9138 14.01 73.6742 14.534 73.6742 15.242V24.47H69.7283V15.87C69.7283 14.0607 69.0886 13.1553 67.8093 13.154C67.5248 13.1534 67.2417 13.1945 66.9687 13.276C66.6962 13.3573 66.4424 13.4933 66.2223 13.676C66.0005 13.8575 65.8185 14.0844 65.6881 14.342C65.5511 14.6253 65.4837 14.9383 65.4917 15.254V24.482H61.5418V12.488C61.5424 11.8856 61.7776 11.308 62.1959 10.882C62.6143 10.4561 63.1815 10.2165 63.7731 10.216H65.4878V12.634H65.6488C65.8951 11.8828 66.3378 11.2141 66.9294 10.7C67.5331 10.1667 68.3593 9.9 69.4081 9.9C70.2827 9.87026 71.1439 10.1245 71.8672 10.626C72.5741 11.1573 73.0897 11.9107 73.3344 12.77H73.413C73.5413 12.3638 73.7358 11.9824 73.9885 11.642C74.2496 11.2856 74.5693 10.9777 74.9332 10.732C75.3221 10.4748 75.7437 10.273 76.1863 10.132C76.6672 9.97392 77.1699 9.89558 77.6751 9.9C79.0245 9.9 80.0615 10.388 80.7784 11.364C81.4423 12.2667 81.8004 13.5207 81.8528 15.126C81.8528 15.262 81.8528 15.404 81.8528 15.546V20.812C81.853 20.9041 81.8715 20.9951 81.9072 21.0797C81.943 21.1643 81.9952 21.2406 82.0608 21.304C82.1264 21.3673 82.2039 21.4165 82.2887 21.4485C82.3734 21.4805 82.4637 21.4946 82.554 21.49C82.7287 21.4748 82.8912 21.3926 83.0086 21.2601C83.126 21.1275 83.1896 20.9545 83.1865 20.776V14.016C83.1865 13.7175 83.2442 13.4219 83.3565 13.1461C83.4687 12.8703 83.6333 12.6197 83.8407 12.4087C84.0481 12.1977 84.2943 12.0304 84.5652 11.9164C84.8361 11.8023 85.1265 11.7437 85.4197 11.744H87.1402Z" fill="#FF2E2E"/>
<path d="M97.6208 19.474C97.4378 20.0323 97.1428 20.5459 96.7546 20.982C96.371 21.4087 95.7883 21.622 95.0066 21.622C94.2248 21.622 93.6212 21.3553 93.1956 20.822C92.7851 20.29 92.5828 19.574 92.5828 18.67V16.018C92.5828 15.118 92.7792 14.398 93.1956 13.868C93.612 13.338 94.2072 13.068 95.0066 13.068C95.6992 13.068 96.242 13.258 96.6348 13.638C97.0193 14.0117 97.286 14.4935 97.4008 15.022L100.6 13.61C100.235 12.4931 99.5188 11.53 98.5616 10.87C97.611 10.2153 96.424 9.88933 95.0007 9.892C94.0436 9.87511 93.0927 10.0497 92.2018 10.406C91.4135 10.7329 90.7122 11.2448 90.1552 11.9C89.5844 12.5881 89.1579 13.3878 88.9021 14.25C88.6054 15.2483 88.4617 16.2871 88.4758 17.33C88.4623 18.3774 88.606 19.4208 88.9021 20.424C89.153 21.2883 89.58 22.089 90.1552 22.774C90.7182 23.4251 91.4204 23.9362 92.2077 24.268C93.096 24.6348 94.0481 24.8144 95.0066 24.796C96.3945 24.796 97.573 24.4767 98.542 23.838C99.5109 23.1993 100.226 22.1993 100.687 20.838L97.6208 19.474Z" fill="#FF2E2E"/>
<path d="M114.365 14.234C114.096 13.3701 113.657 12.5716 113.073 11.888C112.508 11.242 111.806 10.7352 111.02 10.406C109.242 9.72066 107.279 9.72066 105.501 10.406C104.715 10.7352 104.013 11.242 103.448 11.888C102.864 12.5716 102.424 13.3701 102.156 14.234C101.841 15.2343 101.687 16.2797 101.7 17.33C101.687 18.3796 101.841 19.4245 102.156 20.424C102.426 21.2927 102.865 22.0969 103.448 22.788C104.009 23.4413 104.712 23.9522 105.501 24.28C107.279 24.9679 109.242 24.9679 111.02 24.28C111.809 23.9522 112.512 23.4413 113.073 22.788C113.656 22.0969 114.095 21.2927 114.365 20.424C114.68 19.4245 114.834 18.3796 114.821 17.33C114.833 16.2797 114.68 15.2343 114.365 14.234ZM110.714 18.796C110.714 19.7027 110.501 20.4 110.075 20.888C109.65 21.376 109.045 21.6207 108.26 21.622C107.475 21.622 106.874 21.376 106.446 20.888C106.017 20.4 105.807 19.7 105.807 18.796V15.9C105.807 14.9947 106.02 14.2973 106.446 13.808C106.874 13.322 107.477 13.076 108.26 13.076C109.044 13.076 109.647 13.322 110.075 13.808C110.503 14.294 110.714 14.994 110.714 15.9V18.796Z" fill="#FF2E2E"/>
<path d="M120.185 20.3V5.5H116.241V20.562C116.241 21.8287 116.556 22.7967 117.185 23.466C117.815 24.1353 118.806 24.4687 120.159 24.466H122.887V21.348H121.22C120.946 21.348 120.684 21.2378 120.49 21.0414C120.296 20.845 120.186 20.5785 120.185 20.3Z" fill="#FF2E2E"/>
<path d="M136.159 14.234C135.889 13.3708 135.449 12.5726 134.866 11.888C134.301 11.242 133.6 10.7352 132.814 10.406C131.036 9.72066 129.073 9.72066 127.295 10.406C126.509 10.7357 125.806 11.2423 125.24 11.888C124.658 12.5726 124.218 13.3708 123.948 14.234C123.635 15.2345 123.482 16.28 123.496 17.33C123.482 18.3794 123.634 19.4242 123.948 20.424C124.219 21.292 124.659 22.0959 125.24 22.788C125.802 23.4408 126.506 23.9515 127.295 24.28C129.072 24.9679 131.036 24.9679 132.814 24.28C133.603 23.9522 134.306 23.4413 134.866 22.788C135.448 22.0959 135.888 21.292 136.159 20.424C136.474 19.4245 136.628 18.3796 136.615 17.33C136.627 16.2797 136.473 15.2343 136.159 14.234ZM132.508 18.796C132.508 19.7027 132.294 20.4 131.867 20.888C131.44 21.376 130.836 21.6207 130.054 21.622C129.269 21.622 128.664 21.3773 128.241 20.888C127.819 20.3987 127.605 19.7013 127.601 18.796V15.9C127.601 14.9947 127.815 14.2973 128.241 13.808C128.668 13.322 129.273 13.076 130.054 13.076C130.836 13.076 131.441 13.322 131.867 13.808C132.293 14.294 132.508 14.994 132.508 15.9V18.796Z" fill="#FF2E2E"/>
<path d="M148.894 11.356C148.156 10.3853 147.067 9.9 145.628 9.9C144.527 9.9 143.664 10.1713 143.039 10.714C142.441 11.2247 141.989 11.891 141.733 12.642H141.576V10.216H139.861C139.269 10.216 138.702 10.4553 138.283 10.8813C137.864 11.3074 137.629 11.8852 137.628 12.488V24.47H141.576V15.242C141.57 14.9244 141.643 14.6105 141.79 14.33C141.931 14.0685 142.126 13.8413 142.362 13.664C142.606 13.4788 142.882 13.343 143.177 13.264C143.481 13.182 143.795 13.141 144.11 13.142C144.839 13.142 145.346 13.364 145.63 13.808C145.914 14.252 146.056 14.9353 146.056 15.858V24.458H150V15.538C150 13.7287 149.631 12.3347 148.894 11.356Z" fill="#FF2E2E"/>
<path d="M87.1402 10.046H84.909C84.6152 10.0468 84.3242 9.98855 84.0526 9.87463C83.7809 9.7607 83.5341 9.59332 83.3261 9.38209C83.1181 9.17085 82.953 8.9199 82.8405 8.64361C82.7279 8.36732 82.6699 8.07113 82.6699 7.772C82.6702 7.47304 82.7283 7.17706 82.841 6.901C82.9537 6.62495 83.1188 6.37423 83.3268 6.16321C83.5347 5.95218 83.7815 5.78498 84.053 5.67118C84.3245 5.55738 84.6154 5.49921 84.909 5.5C85.5006 5.50053 86.0678 5.74007 86.4862 6.16604C86.9045 6.59201 87.1397 7.16959 87.1402 7.772V10.046Z" fill="#FF2E2E"/>
</svg>
